<mxfile host="app.diagrams.net" agent="Mozilla/5.0 (Windows NT 10.0; Win64; x64) AppleWebKit/537.36 (KHTML, like Gecko) Chrome/131.0.0.0 Safari/537.36" version="25.0.3">
  <diagram id="C5RBs43oDa-KdzZeNtuy" name="Page-1">
    <mxGraphModel dx="1235" dy="665" grid="0" gridSize="10" guides="1" tooltips="1" connect="1" arrows="1" fold="1" page="1" pageScale="1" pageWidth="827" pageHeight="1169" math="0" shadow="1">
      <root>
        <mxCell id="WIyWlLk6GJQsqaUBKTNV-0" />
        <mxCell id="WIyWlLk6GJQsqaUBKTNV-1" parent="WIyWlLk6GJQsqaUBKTNV-0" />
        <mxCell id="7eUokzEOX0yLp_bQZ1jr-0" value="Receive Notification" style="whiteSpace=wrap;strokeWidth=2;hachureGap=4;fontFamily=Lucida Console;shadow=1;fillColor=#d5e8d4;strokeColor=#82b366;" vertex="1" parent="WIyWlLk6GJQsqaUBKTNV-1">
          <mxGeometry x="335" y="490" width="205" height="48" as="geometry" />
        </mxCell>
        <mxCell id="7eUokzEOX0yLp_bQZ1jr-1" value="Review Request" style="whiteSpace=wrap;strokeWidth=2;hachureGap=4;fontFamily=Lucida Console;shadow=1;fillColor=#d5e8d4;strokeColor=#82b366;" vertex="1" parent="WIyWlLk6GJQsqaUBKTNV-1">
          <mxGeometry x="352" y="588" width="172" height="48" as="geometry" />
        </mxCell>
        <mxCell id="7eUokzEOX0yLp_bQZ1jr-2" value="Evaluate Request" style="whiteSpace=wrap;strokeWidth=2;hachureGap=4;fontFamily=Lucida Console;shadow=1;fillColor=#d5e8d4;strokeColor=#82b366;" vertex="1" parent="WIyWlLk6GJQsqaUBKTNV-1">
          <mxGeometry x="346" y="687" width="183" height="48" as="geometry" />
        </mxCell>
        <mxCell id="7eUokzEOX0yLp_bQZ1jr-3" value="Decision Point" style="rhombus;strokeWidth=2;whiteSpace=wrap;hachureGap=4;fontFamily=Lucida Console;shadow=1;fillColor=#d5e8d4;strokeColor=#82b366;" vertex="1" parent="WIyWlLk6GJQsqaUBKTNV-1">
          <mxGeometry x="363" y="785" width="149" height="149" as="geometry" />
        </mxCell>
        <mxCell id="7eUokzEOX0yLp_bQZ1jr-4" value="Approve Request" style="whiteSpace=wrap;strokeWidth=2;hachureGap=4;fontFamily=Lucida Console;shadow=1;fillColor=#d5e8d4;strokeColor=#82b366;" vertex="1" parent="WIyWlLk6GJQsqaUBKTNV-1">
          <mxGeometry x="195" y="984" width="181" height="48" as="geometry" />
        </mxCell>
        <mxCell id="7eUokzEOX0yLp_bQZ1jr-5" value="Reject Request" style="whiteSpace=wrap;strokeWidth=2;hachureGap=4;fontFamily=Lucida Console;shadow=1;fillColor=#d5e8d4;strokeColor=#82b366;" vertex="1" parent="WIyWlLk6GJQsqaUBKTNV-1">
          <mxGeometry x="506" y="984" width="168" height="48" as="geometry" />
        </mxCell>
        <mxCell id="7eUokzEOX0yLp_bQZ1jr-6" value="Update Status to Approved" style="whiteSpace=wrap;strokeWidth=2;hachureGap=4;fontFamily=Lucida Console;shadow=1;fillColor=#d5e8d4;strokeColor=#82b366;" vertex="1" parent="WIyWlLk6GJQsqaUBKTNV-1">
          <mxGeometry x="160" y="1083" width="252" height="48" as="geometry" />
        </mxCell>
        <mxCell id="7eUokzEOX0yLp_bQZ1jr-7" value="Update Status to Rejected" style="whiteSpace=wrap;strokeWidth=2;hachureGap=4;fontFamily=Lucida Console;shadow=1;fillColor=#d5e8d4;strokeColor=#82b366;" vertex="1" parent="WIyWlLk6GJQsqaUBKTNV-1">
          <mxGeometry x="465" y="1083" width="249" height="48" as="geometry" />
        </mxCell>
        <mxCell id="7eUokzEOX0yLp_bQZ1jr-8" value="Send Approval Notification" style="whiteSpace=wrap;strokeWidth=2;hachureGap=4;fontFamily=Lucida Console;shadow=1;fillColor=#d5e8d4;strokeColor=#82b366;" vertex="1" parent="WIyWlLk6GJQsqaUBKTNV-1">
          <mxGeometry x="161" y="1181" width="251" height="48" as="geometry" />
        </mxCell>
        <mxCell id="7eUokzEOX0yLp_bQZ1jr-9" value="Send Rejection Notification" style="whiteSpace=wrap;strokeWidth=2;hachureGap=4;fontFamily=Lucida Console;shadow=1;fillColor=#d5e8d4;strokeColor=#82b366;" vertex="1" parent="WIyWlLk6GJQsqaUBKTNV-1">
          <mxGeometry x="461" y="1181" width="257" height="48" as="geometry" />
        </mxCell>
        <mxCell id="7eUokzEOX0yLp_bQZ1jr-10" value="Update Records" style="whiteSpace=wrap;strokeWidth=2;hachureGap=4;fontFamily=Lucida Console;shadow=1;fillColor=#d5e8d4;strokeColor=#82b366;" vertex="1" parent="WIyWlLk6GJQsqaUBKTNV-1">
          <mxGeometry x="352" y="1279" width="172" height="48" as="geometry" />
        </mxCell>
        <mxCell id="7eUokzEOX0yLp_bQZ1jr-11" value="Completion" style="whiteSpace=wrap;strokeWidth=2;hachureGap=4;fontFamily=Lucida Console;shadow=1;fillColor=#d5e8d4;strokeColor=#82b366;" vertex="1" parent="WIyWlLk6GJQsqaUBKTNV-1">
          <mxGeometry x="367" y="1378" width="142" height="48" as="geometry" />
        </mxCell>
        <mxCell id="7eUokzEOX0yLp_bQZ1jr-12" value="" style="curved=1;startArrow=none;endArrow=block;exitX=0.5;exitY=1.01;entryX=0.5;entryY=0.01;rounded=0;hachureGap=4;fontFamily=Lucida Console;shadow=1;fillColor=#d5e8d4;strokeColor=#82b366;" edge="1" parent="WIyWlLk6GJQsqaUBKTNV-1" source="7eUokzEOX0yLp_bQZ1jr-0" target="7eUokzEOX0yLp_bQZ1jr-1">
          <mxGeometry relative="1" as="geometry">
            <Array as="points" />
          </mxGeometry>
        </mxCell>
        <mxCell id="7eUokzEOX0yLp_bQZ1jr-13" value="" style="curved=1;startArrow=none;endArrow=block;exitX=0.5;exitY=1.02;entryX=0.5;entryY=0;rounded=0;hachureGap=4;fontFamily=Lucida Console;shadow=1;fillColor=#d5e8d4;strokeColor=#82b366;" edge="1" parent="WIyWlLk6GJQsqaUBKTNV-1" source="7eUokzEOX0yLp_bQZ1jr-1" target="7eUokzEOX0yLp_bQZ1jr-2">
          <mxGeometry relative="1" as="geometry">
            <Array as="points" />
          </mxGeometry>
        </mxCell>
        <mxCell id="7eUokzEOX0yLp_bQZ1jr-14" value="" style="curved=1;startArrow=none;endArrow=block;exitX=0.5;exitY=1;entryX=0.5;entryY=0;rounded=0;hachureGap=4;fontFamily=Lucida Console;shadow=1;fillColor=#d5e8d4;strokeColor=#82b366;" edge="1" parent="WIyWlLk6GJQsqaUBKTNV-1" source="7eUokzEOX0yLp_bQZ1jr-2" target="7eUokzEOX0yLp_bQZ1jr-3">
          <mxGeometry relative="1" as="geometry">
            <Array as="points" />
          </mxGeometry>
        </mxCell>
        <mxCell id="7eUokzEOX0yLp_bQZ1jr-15" value="" style="curved=1;startArrow=none;endArrow=block;exitX=0;exitY=0.83;entryX=0.5;entryY=0.01;rounded=0;hachureGap=4;fontFamily=Lucida Console;shadow=1;fillColor=#d5e8d4;strokeColor=#82b366;" edge="1" parent="WIyWlLk6GJQsqaUBKTNV-1" source="7eUokzEOX0yLp_bQZ1jr-3" target="7eUokzEOX0yLp_bQZ1jr-4">
          <mxGeometry relative="1" as="geometry">
            <Array as="points">
              <mxPoint x="286" y="959" />
            </Array>
          </mxGeometry>
        </mxCell>
        <mxCell id="7eUokzEOX0yLp_bQZ1jr-16" value="" style="curved=1;startArrow=none;endArrow=block;exitX=1;exitY=0.83;entryX=0.5;entryY=0.01;rounded=0;hachureGap=4;fontFamily=Lucida Console;shadow=1;fillColor=#d5e8d4;strokeColor=#82b366;" edge="1" parent="WIyWlLk6GJQsqaUBKTNV-1" source="7eUokzEOX0yLp_bQZ1jr-3" target="7eUokzEOX0yLp_bQZ1jr-5">
          <mxGeometry relative="1" as="geometry">
            <Array as="points">
              <mxPoint x="589" y="959" />
            </Array>
          </mxGeometry>
        </mxCell>
        <mxCell id="7eUokzEOX0yLp_bQZ1jr-17" value="" style="curved=1;startArrow=none;endArrow=block;exitX=0.5;exitY=1.01;entryX=0.5;entryY=-0.01;rounded=0;hachureGap=4;fontFamily=Lucida Console;shadow=1;fillColor=#d5e8d4;strokeColor=#82b366;" edge="1" parent="WIyWlLk6GJQsqaUBKTNV-1" source="7eUokzEOX0yLp_bQZ1jr-4" target="7eUokzEOX0yLp_bQZ1jr-6">
          <mxGeometry relative="1" as="geometry">
            <Array as="points" />
          </mxGeometry>
        </mxCell>
        <mxCell id="7eUokzEOX0yLp_bQZ1jr-18" value="" style="curved=1;startArrow=none;endArrow=block;exitX=0.5;exitY=1.01;entryX=0.5;entryY=-0.01;rounded=0;hachureGap=4;fontFamily=Lucida Console;shadow=1;fillColor=#d5e8d4;strokeColor=#82b366;" edge="1" parent="WIyWlLk6GJQsqaUBKTNV-1" source="7eUokzEOX0yLp_bQZ1jr-5" target="7eUokzEOX0yLp_bQZ1jr-7">
          <mxGeometry relative="1" as="geometry">
            <Array as="points" />
          </mxGeometry>
        </mxCell>
        <mxCell id="7eUokzEOX0yLp_bQZ1jr-19" value="" style="curved=1;startArrow=none;endArrow=block;exitX=0.5;exitY=1;entryX=0.5;entryY=0;rounded=0;hachureGap=4;fontFamily=Lucida Console;shadow=1;fillColor=#d5e8d4;strokeColor=#82b366;" edge="1" parent="WIyWlLk6GJQsqaUBKTNV-1" source="7eUokzEOX0yLp_bQZ1jr-6" target="7eUokzEOX0yLp_bQZ1jr-8">
          <mxGeometry relative="1" as="geometry">
            <Array as="points" />
          </mxGeometry>
        </mxCell>
        <mxCell id="7eUokzEOX0yLp_bQZ1jr-20" value="" style="curved=1;startArrow=none;endArrow=block;exitX=0.5;exitY=1;entryX=0.5;entryY=0;rounded=0;hachureGap=4;fontFamily=Lucida Console;shadow=1;fillColor=#d5e8d4;strokeColor=#82b366;" edge="1" parent="WIyWlLk6GJQsqaUBKTNV-1" source="7eUokzEOX0yLp_bQZ1jr-7" target="7eUokzEOX0yLp_bQZ1jr-9">
          <mxGeometry relative="1" as="geometry">
            <Array as="points" />
          </mxGeometry>
        </mxCell>
        <mxCell id="7eUokzEOX0yLp_bQZ1jr-21" value="" style="curved=1;startArrow=none;endArrow=block;exitX=0.5;exitY=1.01;entryX=0.06;entryY=0.01;rounded=0;hachureGap=4;fontFamily=Lucida Console;shadow=1;fillColor=#d5e8d4;strokeColor=#82b366;" edge="1" parent="WIyWlLk6GJQsqaUBKTNV-1" source="7eUokzEOX0yLp_bQZ1jr-8" target="7eUokzEOX0yLp_bQZ1jr-10">
          <mxGeometry relative="1" as="geometry">
            <Array as="points">
              <mxPoint x="286" y="1254" />
            </Array>
          </mxGeometry>
        </mxCell>
        <mxCell id="7eUokzEOX0yLp_bQZ1jr-22" value="" style="curved=1;startArrow=none;endArrow=block;exitX=0.5;exitY=1.01;entryX=0.93;entryY=0.01;rounded=0;hachureGap=4;fontFamily=Lucida Console;shadow=1;fillColor=#d5e8d4;strokeColor=#82b366;" edge="1" parent="WIyWlLk6GJQsqaUBKTNV-1" source="7eUokzEOX0yLp_bQZ1jr-9" target="7eUokzEOX0yLp_bQZ1jr-10">
          <mxGeometry relative="1" as="geometry">
            <Array as="points">
              <mxPoint x="589" y="1254" />
            </Array>
          </mxGeometry>
        </mxCell>
        <mxCell id="7eUokzEOX0yLp_bQZ1jr-23" value="" style="curved=1;startArrow=none;endArrow=block;exitX=0.5;exitY=1.02;entryX=0.5;entryY=0;rounded=0;hachureGap=4;fontFamily=Lucida Console;shadow=1;fillColor=#d5e8d4;strokeColor=#82b366;" edge="1" parent="WIyWlLk6GJQsqaUBKTNV-1" source="7eUokzEOX0yLp_bQZ1jr-10" target="7eUokzEOX0yLp_bQZ1jr-11">
          <mxGeometry relative="1" as="geometry">
            <Array as="points" />
          </mxGeometry>
        </mxCell>
        <mxCell id="7eUokzEOX0yLp_bQZ1jr-24" value="Receive Notification" style="whiteSpace=wrap;strokeWidth=2;sketch=1;hachureGap=4;jiggle=2;curveFitting=1;fontFamily=Architects Daughter;fontSource=https%3A%2F%2Ffonts.googleapis.com%2Fcss%3Ffamily%3DArchitects%2BDaughter;" vertex="1" parent="WIyWlLk6GJQsqaUBKTNV-1">
          <mxGeometry x="330" y="1933" width="205" height="48" as="geometry" />
        </mxCell>
        <mxCell id="7eUokzEOX0yLp_bQZ1jr-25" value="Review Request" style="whiteSpace=wrap;strokeWidth=2;sketch=1;hachureGap=4;jiggle=2;curveFitting=1;fontFamily=Architects Daughter;fontSource=https%3A%2F%2Ffonts.googleapis.com%2Fcss%3Ffamily%3DArchitects%2BDaughter;" vertex="1" parent="WIyWlLk6GJQsqaUBKTNV-1">
          <mxGeometry x="347" y="2031" width="172" height="48" as="geometry" />
        </mxCell>
        <mxCell id="7eUokzEOX0yLp_bQZ1jr-26" value="Evaluate Request" style="whiteSpace=wrap;strokeWidth=2;sketch=1;hachureGap=4;jiggle=2;curveFitting=1;fontFamily=Architects Daughter;fontSource=https%3A%2F%2Ffonts.googleapis.com%2Fcss%3Ffamily%3DArchitects%2BDaughter;" vertex="1" parent="WIyWlLk6GJQsqaUBKTNV-1">
          <mxGeometry x="341" y="2130" width="183" height="48" as="geometry" />
        </mxCell>
        <mxCell id="7eUokzEOX0yLp_bQZ1jr-27" value="Decision Point" style="rhombus;strokeWidth=2;whiteSpace=wrap;sketch=1;hachureGap=4;jiggle=2;curveFitting=1;fontFamily=Architects Daughter;fontSource=https%3A%2F%2Ffonts.googleapis.com%2Fcss%3Ffamily%3DArchitects%2BDaughter;" vertex="1" parent="WIyWlLk6GJQsqaUBKTNV-1">
          <mxGeometry x="358" y="2228" width="149" height="149" as="geometry" />
        </mxCell>
        <mxCell id="7eUokzEOX0yLp_bQZ1jr-28" value="Approve Request" style="whiteSpace=wrap;strokeWidth=2;sketch=1;hachureGap=4;jiggle=2;curveFitting=1;fontFamily=Architects Daughter;fontSource=https%3A%2F%2Ffonts.googleapis.com%2Fcss%3Ffamily%3DArchitects%2BDaughter;" vertex="1" parent="WIyWlLk6GJQsqaUBKTNV-1">
          <mxGeometry x="190" y="2427" width="181" height="48" as="geometry" />
        </mxCell>
        <mxCell id="7eUokzEOX0yLp_bQZ1jr-29" value="Reject Request" style="whiteSpace=wrap;strokeWidth=2;sketch=1;hachureGap=4;jiggle=2;curveFitting=1;fontFamily=Architects Daughter;fontSource=https%3A%2F%2Ffonts.googleapis.com%2Fcss%3Ffamily%3DArchitects%2BDaughter;" vertex="1" parent="WIyWlLk6GJQsqaUBKTNV-1">
          <mxGeometry x="501" y="2427" width="168" height="48" as="geometry" />
        </mxCell>
        <mxCell id="7eUokzEOX0yLp_bQZ1jr-30" value="Update Status to Approved" style="whiteSpace=wrap;strokeWidth=2;sketch=1;hachureGap=4;jiggle=2;curveFitting=1;fontFamily=Architects Daughter;fontSource=https%3A%2F%2Ffonts.googleapis.com%2Fcss%3Ffamily%3DArchitects%2BDaughter;" vertex="1" parent="WIyWlLk6GJQsqaUBKTNV-1">
          <mxGeometry x="155" y="2526" width="252" height="48" as="geometry" />
        </mxCell>
        <mxCell id="7eUokzEOX0yLp_bQZ1jr-31" value="Update Status to Rejected" style="whiteSpace=wrap;strokeWidth=2;sketch=1;hachureGap=4;jiggle=2;curveFitting=1;fontFamily=Architects Daughter;fontSource=https%3A%2F%2Ffonts.googleapis.com%2Fcss%3Ffamily%3DArchitects%2BDaughter;" vertex="1" parent="WIyWlLk6GJQsqaUBKTNV-1">
          <mxGeometry x="460" y="2526" width="249" height="48" as="geometry" />
        </mxCell>
        <mxCell id="7eUokzEOX0yLp_bQZ1jr-32" value="Send Approval Notification" style="whiteSpace=wrap;strokeWidth=2;sketch=1;hachureGap=4;jiggle=2;curveFitting=1;fontFamily=Architects Daughter;fontSource=https%3A%2F%2Ffonts.googleapis.com%2Fcss%3Ffamily%3DArchitects%2BDaughter;" vertex="1" parent="WIyWlLk6GJQsqaUBKTNV-1">
          <mxGeometry x="156" y="2624" width="251" height="48" as="geometry" />
        </mxCell>
        <mxCell id="7eUokzEOX0yLp_bQZ1jr-33" value="Send Rejection Notification" style="whiteSpace=wrap;strokeWidth=2;sketch=1;hachureGap=4;jiggle=2;curveFitting=1;fontFamily=Architects Daughter;fontSource=https%3A%2F%2Ffonts.googleapis.com%2Fcss%3Ffamily%3DArchitects%2BDaughter;" vertex="1" parent="WIyWlLk6GJQsqaUBKTNV-1">
          <mxGeometry x="456" y="2624" width="257" height="48" as="geometry" />
        </mxCell>
        <mxCell id="7eUokzEOX0yLp_bQZ1jr-34" value="Update Records" style="whiteSpace=wrap;strokeWidth=2;sketch=1;hachureGap=4;jiggle=2;curveFitting=1;fontFamily=Architects Daughter;fontSource=https%3A%2F%2Ffonts.googleapis.com%2Fcss%3Ffamily%3DArchitects%2BDaughter;" vertex="1" parent="WIyWlLk6GJQsqaUBKTNV-1">
          <mxGeometry x="347" y="2722" width="172" height="48" as="geometry" />
        </mxCell>
        <mxCell id="7eUokzEOX0yLp_bQZ1jr-35" value="Completion" style="whiteSpace=wrap;strokeWidth=2;sketch=1;hachureGap=4;jiggle=2;curveFitting=1;fontFamily=Architects Daughter;fontSource=https%3A%2F%2Ffonts.googleapis.com%2Fcss%3Ffamily%3DArchitects%2BDaughter;" vertex="1" parent="WIyWlLk6GJQsqaUBKTNV-1">
          <mxGeometry x="362" y="2821" width="142" height="48" as="geometry" />
        </mxCell>
        <mxCell id="7eUokzEOX0yLp_bQZ1jr-36" value="" style="curved=1;startArrow=none;endArrow=block;exitX=0.5;exitY=1.01;entryX=0.5;entryY=0.01;rounded=0;sketch=1;hachureGap=4;jiggle=2;curveFitting=1;fontFamily=Architects Daughter;fontSource=https%3A%2F%2Ffonts.googleapis.com%2Fcss%3Ffamily%3DArchitects%2BDaughter;" edge="1" parent="WIyWlLk6GJQsqaUBKTNV-1" source="7eUokzEOX0yLp_bQZ1jr-24" target="7eUokzEOX0yLp_bQZ1jr-25">
          <mxGeometry relative="1" as="geometry">
            <Array as="points" />
          </mxGeometry>
        </mxCell>
        <mxCell id="7eUokzEOX0yLp_bQZ1jr-37" value="" style="curved=1;startArrow=none;endArrow=block;exitX=0.5;exitY=1.02;entryX=0.5;entryY=0;rounded=0;sketch=1;hachureGap=4;jiggle=2;curveFitting=1;fontFamily=Architects Daughter;fontSource=https%3A%2F%2Ffonts.googleapis.com%2Fcss%3Ffamily%3DArchitects%2BDaughter;" edge="1" parent="WIyWlLk6GJQsqaUBKTNV-1" source="7eUokzEOX0yLp_bQZ1jr-25" target="7eUokzEOX0yLp_bQZ1jr-26">
          <mxGeometry relative="1" as="geometry">
            <Array as="points" />
          </mxGeometry>
        </mxCell>
        <mxCell id="7eUokzEOX0yLp_bQZ1jr-38" value="" style="curved=1;startArrow=none;endArrow=block;exitX=0.5;exitY=1;entryX=0.5;entryY=0;rounded=0;sketch=1;hachureGap=4;jiggle=2;curveFitting=1;fontFamily=Architects Daughter;fontSource=https%3A%2F%2Ffonts.googleapis.com%2Fcss%3Ffamily%3DArchitects%2BDaughter;" edge="1" parent="WIyWlLk6GJQsqaUBKTNV-1" source="7eUokzEOX0yLp_bQZ1jr-26" target="7eUokzEOX0yLp_bQZ1jr-27">
          <mxGeometry relative="1" as="geometry">
            <Array as="points" />
          </mxGeometry>
        </mxCell>
        <mxCell id="7eUokzEOX0yLp_bQZ1jr-39" value="" style="curved=1;startArrow=none;endArrow=block;exitX=0;exitY=0.83;entryX=0.5;entryY=0.01;rounded=0;sketch=1;hachureGap=4;jiggle=2;curveFitting=1;fontFamily=Architects Daughter;fontSource=https%3A%2F%2Ffonts.googleapis.com%2Fcss%3Ffamily%3DArchitects%2BDaughter;" edge="1" parent="WIyWlLk6GJQsqaUBKTNV-1" source="7eUokzEOX0yLp_bQZ1jr-27" target="7eUokzEOX0yLp_bQZ1jr-28">
          <mxGeometry relative="1" as="geometry">
            <Array as="points">
              <mxPoint x="281" y="2402" />
            </Array>
          </mxGeometry>
        </mxCell>
        <mxCell id="7eUokzEOX0yLp_bQZ1jr-40" value="" style="curved=1;startArrow=none;endArrow=block;exitX=1;exitY=0.83;entryX=0.5;entryY=0.01;rounded=0;sketch=1;hachureGap=4;jiggle=2;curveFitting=1;fontFamily=Architects Daughter;fontSource=https%3A%2F%2Ffonts.googleapis.com%2Fcss%3Ffamily%3DArchitects%2BDaughter;" edge="1" parent="WIyWlLk6GJQsqaUBKTNV-1" source="7eUokzEOX0yLp_bQZ1jr-27" target="7eUokzEOX0yLp_bQZ1jr-29">
          <mxGeometry relative="1" as="geometry">
            <Array as="points">
              <mxPoint x="584" y="2402" />
            </Array>
          </mxGeometry>
        </mxCell>
        <mxCell id="7eUokzEOX0yLp_bQZ1jr-41" value="" style="curved=1;startArrow=none;endArrow=block;exitX=0.5;exitY=1.01;entryX=0.5;entryY=-0.01;rounded=0;sketch=1;hachureGap=4;jiggle=2;curveFitting=1;fontFamily=Architects Daughter;fontSource=https%3A%2F%2Ffonts.googleapis.com%2Fcss%3Ffamily%3DArchitects%2BDaughter;" edge="1" parent="WIyWlLk6GJQsqaUBKTNV-1" source="7eUokzEOX0yLp_bQZ1jr-28" target="7eUokzEOX0yLp_bQZ1jr-30">
          <mxGeometry relative="1" as="geometry">
            <Array as="points" />
          </mxGeometry>
        </mxCell>
        <mxCell id="7eUokzEOX0yLp_bQZ1jr-42" value="" style="curved=1;startArrow=none;endArrow=block;exitX=0.5;exitY=1.01;entryX=0.5;entryY=-0.01;rounded=0;sketch=1;hachureGap=4;jiggle=2;curveFitting=1;fontFamily=Architects Daughter;fontSource=https%3A%2F%2Ffonts.googleapis.com%2Fcss%3Ffamily%3DArchitects%2BDaughter;" edge="1" parent="WIyWlLk6GJQsqaUBKTNV-1" source="7eUokzEOX0yLp_bQZ1jr-29" target="7eUokzEOX0yLp_bQZ1jr-31">
          <mxGeometry relative="1" as="geometry">
            <Array as="points" />
          </mxGeometry>
        </mxCell>
        <mxCell id="7eUokzEOX0yLp_bQZ1jr-43" value="" style="curved=1;startArrow=none;endArrow=block;exitX=0.5;exitY=1;entryX=0.5;entryY=0;rounded=0;sketch=1;hachureGap=4;jiggle=2;curveFitting=1;fontFamily=Architects Daughter;fontSource=https%3A%2F%2Ffonts.googleapis.com%2Fcss%3Ffamily%3DArchitects%2BDaughter;" edge="1" parent="WIyWlLk6GJQsqaUBKTNV-1" source="7eUokzEOX0yLp_bQZ1jr-30" target="7eUokzEOX0yLp_bQZ1jr-32">
          <mxGeometry relative="1" as="geometry">
            <Array as="points" />
          </mxGeometry>
        </mxCell>
        <mxCell id="7eUokzEOX0yLp_bQZ1jr-44" value="" style="curved=1;startArrow=none;endArrow=block;exitX=0.5;exitY=1;entryX=0.5;entryY=0;rounded=0;sketch=1;hachureGap=4;jiggle=2;curveFitting=1;fontFamily=Architects Daughter;fontSource=https%3A%2F%2Ffonts.googleapis.com%2Fcss%3Ffamily%3DArchitects%2BDaughter;" edge="1" parent="WIyWlLk6GJQsqaUBKTNV-1" source="7eUokzEOX0yLp_bQZ1jr-31" target="7eUokzEOX0yLp_bQZ1jr-33">
          <mxGeometry relative="1" as="geometry">
            <Array as="points" />
          </mxGeometry>
        </mxCell>
        <mxCell id="7eUokzEOX0yLp_bQZ1jr-45" value="" style="curved=1;startArrow=none;endArrow=block;exitX=0.5;exitY=1.01;entryX=0.06;entryY=0.01;rounded=0;sketch=1;hachureGap=4;jiggle=2;curveFitting=1;fontFamily=Architects Daughter;fontSource=https%3A%2F%2Ffonts.googleapis.com%2Fcss%3Ffamily%3DArchitects%2BDaughter;" edge="1" parent="WIyWlLk6GJQsqaUBKTNV-1" source="7eUokzEOX0yLp_bQZ1jr-32" target="7eUokzEOX0yLp_bQZ1jr-34">
          <mxGeometry relative="1" as="geometry">
            <Array as="points">
              <mxPoint x="281" y="2697" />
            </Array>
          </mxGeometry>
        </mxCell>
        <mxCell id="7eUokzEOX0yLp_bQZ1jr-46" value="" style="curved=1;startArrow=none;endArrow=block;exitX=0.5;exitY=1.01;entryX=0.93;entryY=0.01;rounded=0;sketch=1;hachureGap=4;jiggle=2;curveFitting=1;fontFamily=Architects Daughter;fontSource=https%3A%2F%2Ffonts.googleapis.com%2Fcss%3Ffamily%3DArchitects%2BDaughter;" edge="1" parent="WIyWlLk6GJQsqaUBKTNV-1" source="7eUokzEOX0yLp_bQZ1jr-33" target="7eUokzEOX0yLp_bQZ1jr-34">
          <mxGeometry relative="1" as="geometry">
            <Array as="points">
              <mxPoint x="584" y="2697" />
            </Array>
          </mxGeometry>
        </mxCell>
        <mxCell id="7eUokzEOX0yLp_bQZ1jr-47" value="" style="curved=1;startArrow=none;endArrow=block;exitX=0.5;exitY=1.02;entryX=0.5;entryY=0;rounded=0;sketch=1;hachureGap=4;jiggle=2;curveFitting=1;fontFamily=Architects Daughter;fontSource=https%3A%2F%2Ffonts.googleapis.com%2Fcss%3Ffamily%3DArchitects%2BDaughter;" edge="1" parent="WIyWlLk6GJQsqaUBKTNV-1" source="7eUokzEOX0yLp_bQZ1jr-34" target="7eUokzEOX0yLp_bQZ1jr-35">
          <mxGeometry relative="1" as="geometry">
            <Array as="points" />
          </mxGeometry>
        </mxCell>
      </root>
    </mxGraphModel>
  </diagram>
</mxfile>
